<mxfile host="app.diagrams.net" agent="Mozilla/5.0 (Windows NT 10.0; Win64; x64) AppleWebKit/537.36 (KHTML, like Gecko) Chrome/133.0.0.0 Safari/537.36" version="26.0.13">
  <diagram id="C5RBs43oDa-KdzZeNtuy" name="Page-1">
    <mxGraphModel dx="1434" dy="686" grid="1" gridSize="10" guides="1" tooltips="1" connect="1" arrows="1" fold="1" page="1" pageScale="1" pageWidth="827" pageHeight="1169" math="0" shadow="0">
      <root>
        <mxCell id="WIyWlLk6GJQsqaUBKTNV-0" />
        <mxCell id="WIyWlLk6GJQsqaUBKTNV-1" parent="WIyWlLk6GJQsqaUBKTNV-0" />
        <mxCell id="M0cNuoq_BVRH5s3K1j6a-0" value="Start" style="ellipse;whiteSpace=wrap;html=1;aspect=fixed;" parent="WIyWlLk6GJQsqaUBKTNV-1" vertex="1">
          <mxGeometry x="30" y="40" width="80" height="80" as="geometry" />
        </mxCell>
        <mxCell id="M0cNuoq_BVRH5s3K1j6a-2" value="Display Welcome Message" style="strokeWidth=2;html=1;shape=mxgraph.flowchart.display;whiteSpace=wrap;" parent="WIyWlLk6GJQsqaUBKTNV-1" vertex="1">
          <mxGeometry x="60" y="150" width="100" height="60" as="geometry" />
        </mxCell>
        <mxCell id="M0cNuoq_BVRH5s3K1j6a-4" style="edgeStyle=orthogonalEdgeStyle;rounded=0;orthogonalLoop=1;jettySize=auto;html=1;entryX=0.5;entryY=0;entryDx=0;entryDy=0;entryPerimeter=0;" parent="WIyWlLk6GJQsqaUBKTNV-1" source="M0cNuoq_BVRH5s3K1j6a-0" target="M0cNuoq_BVRH5s3K1j6a-2" edge="1">
          <mxGeometry relative="1" as="geometry" />
        </mxCell>
        <mxCell id="M0cNuoq_BVRH5s3K1j6a-5" value="End" style="strokeWidth=2;html=1;shape=mxgraph.flowchart.terminator;whiteSpace=wrap;" parent="WIyWlLk6GJQsqaUBKTNV-1" vertex="1">
          <mxGeometry x="630" y="1100" width="100" height="60" as="geometry" />
        </mxCell>
        <mxCell id="Pbep3OcVTzpklE_V4j8z-0" style="edgeStyle=orthogonalEdgeStyle;rounded=0;orthogonalLoop=1;jettySize=auto;html=1;" parent="WIyWlLk6GJQsqaUBKTNV-1" source="M0cNuoq_BVRH5s3K1j6a-7" target="M0cNuoq_BVRH5s3K1j6a-9" edge="1">
          <mxGeometry relative="1" as="geometry" />
        </mxCell>
        <mxCell id="M0cNuoq_BVRH5s3K1j6a-7" value="Ask user for Month Number" style="strokeWidth=2;html=1;shape=mxgraph.flowchart.display;whiteSpace=wrap;" parent="WIyWlLk6GJQsqaUBKTNV-1" vertex="1">
          <mxGeometry x="60" y="240" width="100" height="60" as="geometry" />
        </mxCell>
        <mxCell id="M0cNuoq_BVRH5s3K1j6a-8" style="edgeStyle=orthogonalEdgeStyle;rounded=0;orthogonalLoop=1;jettySize=auto;html=1;entryX=0.5;entryY=0;entryDx=0;entryDy=0;entryPerimeter=0;" parent="WIyWlLk6GJQsqaUBKTNV-1" source="M0cNuoq_BVRH5s3K1j6a-2" target="M0cNuoq_BVRH5s3K1j6a-7" edge="1">
          <mxGeometry relative="1" as="geometry" />
        </mxCell>
        <mxCell id="lR4nuZW5cP2FCMOFLGhl-0" style="edgeStyle=orthogonalEdgeStyle;rounded=0;orthogonalLoop=1;jettySize=auto;html=1;" parent="WIyWlLk6GJQsqaUBKTNV-1" source="M0cNuoq_BVRH5s3K1j6a-9" target="Pbep3OcVTzpklE_V4j8z-3" edge="1">
          <mxGeometry relative="1" as="geometry" />
        </mxCell>
        <mxCell id="M0cNuoq_BVRH5s3K1j6a-9" value="User inputs Month number, store in month" style="shape=parallelogram;html=1;strokeWidth=2;perimeter=parallelogramPerimeter;whiteSpace=wrap;rounded=1;arcSize=12;size=0.1323529411764706;" parent="WIyWlLk6GJQsqaUBKTNV-1" vertex="1">
          <mxGeometry x="25" y="330" width="170" height="70" as="geometry" />
        </mxCell>
        <mxCell id="Pbep3OcVTzpklE_V4j8z-2" value="Create season list" style="rounded=1;whiteSpace=wrap;html=1;absoluteArcSize=1;arcSize=14;strokeWidth=2;" parent="WIyWlLk6GJQsqaUBKTNV-1" vertex="1">
          <mxGeometry x="40" y="610" width="100" height="100" as="geometry" />
        </mxCell>
        <mxCell id="6gXWcWXjGd_3RXih_NAf-0" style="edgeStyle=orthogonalEdgeStyle;rounded=0;orthogonalLoop=1;jettySize=auto;html=1;entryX=0.5;entryY=0;entryDx=0;entryDy=0;" edge="1" parent="WIyWlLk6GJQsqaUBKTNV-1" source="Pbep3OcVTzpklE_V4j8z-3" target="Pbep3OcVTzpklE_V4j8z-2">
          <mxGeometry relative="1" as="geometry" />
        </mxCell>
        <mxCell id="Pbep3OcVTzpklE_V4j8z-3" value="Make Month number and name lists" style="rounded=1;whiteSpace=wrap;html=1;absoluteArcSize=1;arcSize=14;strokeWidth=2;" parent="WIyWlLk6GJQsqaUBKTNV-1" vertex="1">
          <mxGeometry x="40" y="460" width="100" height="100" as="geometry" />
        </mxCell>
        <mxCell id="6gXWcWXjGd_3RXih_NAf-7" style="edgeStyle=orthogonalEdgeStyle;rounded=0;orthogonalLoop=1;jettySize=auto;html=1;" edge="1" parent="WIyWlLk6GJQsqaUBKTNV-1" source="6gXWcWXjGd_3RXih_NAf-1">
          <mxGeometry relative="1" as="geometry">
            <mxPoint x="250" y="770" as="targetPoint" />
          </mxGeometry>
        </mxCell>
        <mxCell id="6gXWcWXjGd_3RXih_NAf-1" value="Determine season from list and input" style="strokeWidth=2;html=1;shape=mxgraph.flowchart.decision;whiteSpace=wrap;" vertex="1" parent="WIyWlLk6GJQsqaUBKTNV-1">
          <mxGeometry x="220" y="600" width="120" height="120" as="geometry" />
        </mxCell>
        <mxCell id="6gXWcWXjGd_3RXih_NAf-2" style="edgeStyle=orthogonalEdgeStyle;rounded=0;orthogonalLoop=1;jettySize=auto;html=1;exitX=1;exitY=0.5;exitDx=0;exitDy=0;entryX=0;entryY=0.5;entryDx=0;entryDy=0;entryPerimeter=0;" edge="1" parent="WIyWlLk6GJQsqaUBKTNV-1" source="Pbep3OcVTzpklE_V4j8z-2" target="6gXWcWXjGd_3RXih_NAf-1">
          <mxGeometry relative="1" as="geometry" />
        </mxCell>
        <mxCell id="6gXWcWXjGd_3RXih_NAf-17" style="edgeStyle=orthogonalEdgeStyle;rounded=0;orthogonalLoop=1;jettySize=auto;html=1;exitX=0.5;exitY=1;exitDx=0;exitDy=0;exitPerimeter=0;entryX=0.5;entryY=0;entryDx=0;entryDy=0;" edge="1" parent="WIyWlLk6GJQsqaUBKTNV-1" source="6gXWcWXjGd_3RXih_NAf-3" target="6gXWcWXjGd_3RXih_NAf-12">
          <mxGeometry relative="1" as="geometry" />
        </mxCell>
        <mxCell id="6gXWcWXjGd_3RXih_NAf-3" value="if 6,7,8" style="strokeWidth=2;html=1;shape=mxgraph.flowchart.decision;whiteSpace=wrap;" vertex="1" parent="WIyWlLk6GJQsqaUBKTNV-1">
          <mxGeometry x="310" y="770" width="100" height="100" as="geometry" />
        </mxCell>
        <mxCell id="6gXWcWXjGd_3RXih_NAf-4" value="if 9,10,11" style="strokeWidth=2;html=1;shape=mxgraph.flowchart.decision;whiteSpace=wrap;" vertex="1" parent="WIyWlLk6GJQsqaUBKTNV-1">
          <mxGeometry x="420" y="770" width="100" height="100" as="geometry" />
        </mxCell>
        <mxCell id="6gXWcWXjGd_3RXih_NAf-16" style="edgeStyle=orthogonalEdgeStyle;rounded=0;orthogonalLoop=1;jettySize=auto;html=1;exitX=0.5;exitY=1;exitDx=0;exitDy=0;exitPerimeter=0;entryX=0.5;entryY=0;entryDx=0;entryDy=0;" edge="1" parent="WIyWlLk6GJQsqaUBKTNV-1" source="6gXWcWXjGd_3RXih_NAf-5" target="6gXWcWXjGd_3RXih_NAf-13">
          <mxGeometry relative="1" as="geometry" />
        </mxCell>
        <mxCell id="6gXWcWXjGd_3RXih_NAf-5" value="if 3,4,5" style="strokeWidth=2;html=1;shape=mxgraph.flowchart.decision;whiteSpace=wrap;" vertex="1" parent="WIyWlLk6GJQsqaUBKTNV-1">
          <mxGeometry x="200" y="770" width="100" height="100" as="geometry" />
        </mxCell>
        <mxCell id="6gXWcWXjGd_3RXih_NAf-20" style="edgeStyle=orthogonalEdgeStyle;rounded=0;orthogonalLoop=1;jettySize=auto;html=1;exitX=0.5;exitY=1;exitDx=0;exitDy=0;exitPerimeter=0;entryX=0.5;entryY=0;entryDx=0;entryDy=0;" edge="1" parent="WIyWlLk6GJQsqaUBKTNV-1" source="6gXWcWXjGd_3RXih_NAf-6" target="6gXWcWXjGd_3RXih_NAf-14">
          <mxGeometry relative="1" as="geometry" />
        </mxCell>
        <mxCell id="6gXWcWXjGd_3RXih_NAf-6" value="else" style="strokeWidth=2;html=1;shape=mxgraph.flowchart.decision;whiteSpace=wrap;" vertex="1" parent="WIyWlLk6GJQsqaUBKTNV-1">
          <mxGeometry x="530" y="770" width="100" height="100" as="geometry" />
        </mxCell>
        <mxCell id="6gXWcWXjGd_3RXih_NAf-9" style="edgeStyle=orthogonalEdgeStyle;rounded=0;orthogonalLoop=1;jettySize=auto;html=1;exitX=0.5;exitY=1;exitDx=0;exitDy=0;exitPerimeter=0;entryX=0.5;entryY=0;entryDx=0;entryDy=0;entryPerimeter=0;" edge="1" parent="WIyWlLk6GJQsqaUBKTNV-1" source="6gXWcWXjGd_3RXih_NAf-1" target="6gXWcWXjGd_3RXih_NAf-3">
          <mxGeometry relative="1" as="geometry" />
        </mxCell>
        <mxCell id="6gXWcWXjGd_3RXih_NAf-10" style="edgeStyle=orthogonalEdgeStyle;rounded=0;orthogonalLoop=1;jettySize=auto;html=1;exitX=0.5;exitY=1;exitDx=0;exitDy=0;exitPerimeter=0;entryX=0.5;entryY=0;entryDx=0;entryDy=0;entryPerimeter=0;" edge="1" parent="WIyWlLk6GJQsqaUBKTNV-1" source="6gXWcWXjGd_3RXih_NAf-1" target="6gXWcWXjGd_3RXih_NAf-4">
          <mxGeometry relative="1" as="geometry" />
        </mxCell>
        <mxCell id="6gXWcWXjGd_3RXih_NAf-11" style="edgeStyle=orthogonalEdgeStyle;rounded=0;orthogonalLoop=1;jettySize=auto;html=1;exitX=0.5;exitY=1;exitDx=0;exitDy=0;exitPerimeter=0;entryX=0.5;entryY=0;entryDx=0;entryDy=0;entryPerimeter=0;" edge="1" parent="WIyWlLk6GJQsqaUBKTNV-1" source="6gXWcWXjGd_3RXih_NAf-1" target="6gXWcWXjGd_3RXih_NAf-6">
          <mxGeometry relative="1" as="geometry" />
        </mxCell>
        <mxCell id="6gXWcWXjGd_3RXih_NAf-24" style="edgeStyle=orthogonalEdgeStyle;rounded=0;orthogonalLoop=1;jettySize=auto;html=1;exitX=0.5;exitY=1;exitDx=0;exitDy=0;entryX=0.25;entryY=0;entryDx=0;entryDy=0;" edge="1" parent="WIyWlLk6GJQsqaUBKTNV-1" source="6gXWcWXjGd_3RXih_NAf-12" target="6gXWcWXjGd_3RXih_NAf-21">
          <mxGeometry relative="1" as="geometry" />
        </mxCell>
        <mxCell id="6gXWcWXjGd_3RXih_NAf-12" value="Then season is summer" style="rounded=1;whiteSpace=wrap;html=1;absoluteArcSize=1;arcSize=14;strokeWidth=2;" vertex="1" parent="WIyWlLk6GJQsqaUBKTNV-1">
          <mxGeometry x="310" y="900" width="100" height="100" as="geometry" />
        </mxCell>
        <mxCell id="6gXWcWXjGd_3RXih_NAf-23" style="edgeStyle=orthogonalEdgeStyle;rounded=0;orthogonalLoop=1;jettySize=auto;html=1;entryX=0;entryY=0.5;entryDx=0;entryDy=0;" edge="1" parent="WIyWlLk6GJQsqaUBKTNV-1" source="6gXWcWXjGd_3RXih_NAf-13" target="6gXWcWXjGd_3RXih_NAf-21">
          <mxGeometry relative="1" as="geometry">
            <Array as="points">
              <mxPoint x="230" y="1010" />
              <mxPoint x="305" y="1010" />
              <mxPoint x="305" y="1065" />
            </Array>
          </mxGeometry>
        </mxCell>
        <mxCell id="6gXWcWXjGd_3RXih_NAf-13" value="season is spring" style="rounded=1;whiteSpace=wrap;html=1;absoluteArcSize=1;arcSize=14;strokeWidth=2;" vertex="1" parent="WIyWlLk6GJQsqaUBKTNV-1">
          <mxGeometry x="180" y="900" width="100" height="100" as="geometry" />
        </mxCell>
        <mxCell id="6gXWcWXjGd_3RXih_NAf-26" style="edgeStyle=orthogonalEdgeStyle;rounded=0;orthogonalLoop=1;jettySize=auto;html=1;exitX=0.5;exitY=1;exitDx=0;exitDy=0;entryX=1;entryY=0.5;entryDx=0;entryDy=0;" edge="1" parent="WIyWlLk6GJQsqaUBKTNV-1" source="6gXWcWXjGd_3RXih_NAf-14" target="6gXWcWXjGd_3RXih_NAf-21">
          <mxGeometry relative="1" as="geometry" />
        </mxCell>
        <mxCell id="6gXWcWXjGd_3RXih_NAf-14" value="season is winter" style="rounded=1;whiteSpace=wrap;html=1;absoluteArcSize=1;arcSize=14;strokeWidth=2;" vertex="1" parent="WIyWlLk6GJQsqaUBKTNV-1">
          <mxGeometry x="540" y="900" width="100" height="100" as="geometry" />
        </mxCell>
        <mxCell id="6gXWcWXjGd_3RXih_NAf-25" style="edgeStyle=orthogonalEdgeStyle;rounded=0;orthogonalLoop=1;jettySize=auto;html=1;exitX=0.5;exitY=1;exitDx=0;exitDy=0;entryX=1;entryY=0.25;entryDx=0;entryDy=0;" edge="1" parent="WIyWlLk6GJQsqaUBKTNV-1" source="6gXWcWXjGd_3RXih_NAf-15" target="6gXWcWXjGd_3RXih_NAf-21">
          <mxGeometry relative="1" as="geometry" />
        </mxCell>
        <mxCell id="6gXWcWXjGd_3RXih_NAf-15" value="season is fall" style="rounded=1;whiteSpace=wrap;html=1;absoluteArcSize=1;arcSize=14;strokeWidth=2;" vertex="1" parent="WIyWlLk6GJQsqaUBKTNV-1">
          <mxGeometry x="430" y="900" width="100" height="100" as="geometry" />
        </mxCell>
        <mxCell id="6gXWcWXjGd_3RXih_NAf-19" style="edgeStyle=orthogonalEdgeStyle;rounded=0;orthogonalLoop=1;jettySize=auto;html=1;exitX=0.5;exitY=1;exitDx=0;exitDy=0;exitPerimeter=0;entryX=0.36;entryY=0.05;entryDx=0;entryDy=0;entryPerimeter=0;" edge="1" parent="WIyWlLk6GJQsqaUBKTNV-1" source="6gXWcWXjGd_3RXih_NAf-4" target="6gXWcWXjGd_3RXih_NAf-15">
          <mxGeometry relative="1" as="geometry" />
        </mxCell>
        <mxCell id="6gXWcWXjGd_3RXih_NAf-21" value="Compare Number to month name list" style="rounded=1;whiteSpace=wrap;html=1;absoluteArcSize=1;arcSize=14;strokeWidth=2;" vertex="1" parent="WIyWlLk6GJQsqaUBKTNV-1">
          <mxGeometry x="330" y="1030" width="100" height="70" as="geometry" />
        </mxCell>
        <mxCell id="6gXWcWXjGd_3RXih_NAf-22" value="Display month Name and Season" style="strokeWidth=2;html=1;shape=mxgraph.flowchart.display;whiteSpace=wrap;" vertex="1" parent="WIyWlLk6GJQsqaUBKTNV-1">
          <mxGeometry x="450" y="1080" width="100" height="60" as="geometry" />
        </mxCell>
        <mxCell id="6gXWcWXjGd_3RXih_NAf-27" style="edgeStyle=orthogonalEdgeStyle;rounded=0;orthogonalLoop=1;jettySize=auto;html=1;exitX=0.5;exitY=1;exitDx=0;exitDy=0;entryX=0;entryY=0.5;entryDx=0;entryDy=0;entryPerimeter=0;" edge="1" parent="WIyWlLk6GJQsqaUBKTNV-1" source="6gXWcWXjGd_3RXih_NAf-21" target="6gXWcWXjGd_3RXih_NAf-22">
          <mxGeometry relative="1" as="geometry" />
        </mxCell>
        <mxCell id="6gXWcWXjGd_3RXih_NAf-28" style="edgeStyle=orthogonalEdgeStyle;rounded=0;orthogonalLoop=1;jettySize=auto;html=1;exitX=1;exitY=0.5;exitDx=0;exitDy=0;exitPerimeter=0;entryX=0;entryY=0.5;entryDx=0;entryDy=0;entryPerimeter=0;" edge="1" parent="WIyWlLk6GJQsqaUBKTNV-1" source="6gXWcWXjGd_3RXih_NAf-22" target="M0cNuoq_BVRH5s3K1j6a-5">
          <mxGeometry relative="1" as="geometry" />
        </mxCell>
      </root>
    </mxGraphModel>
  </diagram>
</mxfile>
